<svg width="233" height="53"><g fill="none" fill-rule="evenodd"><path d="M69.694 9.156v17.342h.092l6.394-9.246h6.992l-7.13 9.752L84.23 42h-6.992l-5.29-10.166-2.254 2.944V42h-6.348V9.156h6.348zm21.942 20.47c0 1.257.03 2.423.092 3.496.061 1.073.207 1.993.437 2.76.23.767.575 1.365 1.035 1.794.46.43 1.073.644 1.84.644 1.288 0 2.177-.675 2.668-2.024.49-1.35.736-3.573.736-6.67s-.245-5.32-.736-6.67c-.49-1.35-1.38-2.024-2.668-2.024-.767 0-1.38.215-1.84.644-.46.43-.805 1.027-1.035 1.794-.23.767-.376 1.687-.437 2.76a61.546 61.546 0 00-.092 3.496zm-6.348 0c0-2.116.169-3.987.506-5.612.337-1.625.89-2.982 1.656-4.071a7.345 7.345 0 013.013-2.484c1.242-.567 2.768-.851 4.577-.851 1.901-.03 3.48.222 4.738.759 1.257.537 2.254 1.357 2.99 2.461.736 1.104 1.257 2.469 1.564 4.094.307 1.625.46 3.527.46 5.704 0 2.116-.169 3.987-.506 5.612-.337 1.625-.89 2.982-1.656 4.071a6.855 6.855 0 01-3.013 2.415c-1.242.521-2.768.782-4.577.782-1.901.03-3.48-.207-4.738-.713-1.257-.506-2.254-1.303-2.99-2.392-.736-1.089-1.257-2.453-1.564-4.094-.307-1.64-.46-3.534-.46-5.681zm34.822-3.45c0-.613-.038-1.211-.115-1.794a6.171 6.171 0 00-.414-1.587 2.829 2.829 0 00-.851-1.15c-.368-.291-.859-.437-1.472-.437-.767 0-1.395.176-1.886.529-.49.353-.859.874-1.104 1.564-.245.69-.414 1.564-.506 2.622a44.007 44.007 0 00-.138 3.749c0 1.533.046 2.844.138 3.933.092 1.089.26 1.986.506 2.691.245.705.59 1.219 1.035 1.541.445.322 1.02.483 1.725.483 1.073 0 1.855-.46 2.346-1.38.49-.92.736-2.392.736-4.416h6.072c0 3.25-.728 5.727-2.185 7.429s-3.872 2.553-7.245 2.553c-1.595 0-2.982-.192-4.163-.575a6.043 6.043 0 01-2.944-2.07c-.782-.997-1.372-2.33-1.771-4.002-.399-1.671-.598-3.749-.598-6.233 0-2.545.245-4.654.736-6.325.49-1.671 1.18-3.005 2.07-4.002.89-.997 1.947-1.694 3.174-2.093 1.227-.399 2.576-.598 4.048-.598 2.944 0 5.16.859 6.647 2.576s2.231 4.048 2.231 6.992h-6.072zm9.614-17.388h6.348v5.428h-6.348V8.788zm0 8.464h6.348V42h-6.348V17.252z" fill="#333"/><path d="M147.556 34.824V42h-6.072v-7.176h6.072zm4.6-25.668h6.348v10.396h.092c.675-.981 1.434-1.717 2.277-2.208.843-.49 1.863-.736 3.059-.736 2.607 0 4.523 1.02 5.75 3.059 1.227 2.04 1.84 5.359 1.84 9.959s-.613 7.897-1.84 9.89c-1.227 1.993-3.143 2.99-5.75 2.99-1.288 0-2.369-.23-3.243-.69-.874-.46-1.664-1.273-2.369-2.438h-.092V42h-6.072V9.156zm6.348 20.47c0 2.699.207 4.73.621 6.095.414 1.365 1.326 2.047 2.737 2.047 1.38 0 2.277-.682 2.691-2.047.414-1.365.621-3.396.621-6.095s-.207-4.73-.621-6.095c-.414-1.365-1.311-2.047-2.691-2.047-1.41 0-2.323.682-2.737 2.047-.414 1.365-.621 3.396-.621 6.095zm16.882-20.47h6.348V42h-6.348V9.156zm16.33 20.47c0 1.257.03 2.423.092 3.496.061 1.073.207 1.993.437 2.76.23.767.575 1.365 1.035 1.794.46.43 1.073.644 1.84.644 1.288 0 2.177-.675 2.668-2.024.49-1.35.736-3.573.736-6.67s-.245-5.32-.736-6.67c-.49-1.35-1.38-2.024-2.668-2.024-.767 0-1.38.215-1.84.644-.46.43-.805 1.027-1.035 1.794-.23.767-.376 1.687-.437 2.76a61.545 61.545 0 00-.092 3.496zm-6.348 0c0-2.116.169-3.987.506-5.612.337-1.625.89-2.982 1.656-4.071a7.345 7.345 0 013.013-2.484c1.242-.567 2.768-.851 4.577-.851 1.901-.03 3.48.222 4.738.759 1.257.537 2.254 1.357 2.99 2.461.736 1.104 1.257 2.469 1.564 4.094.307 1.625.46 3.527.46 5.704 0 2.116-.169 3.987-.506 5.612-.337 1.625-.89 2.982-1.656 4.071a6.855 6.855 0 01-3.013 2.415c-1.242.521-2.768.782-4.577.782-1.901.03-3.48-.207-4.738-.713-1.257-.506-2.254-1.303-2.99-2.392-.736-1.089-1.257-2.453-1.564-4.094-.307-1.64-.46-3.534-.46-5.681zm28.75.782c0 .859.038 1.671.115 2.438.077.767.23 1.449.46 2.047.23.598.552 1.073.966 1.426.414.353.958.529 1.633.529s1.234-.176 1.679-.529c.445-.353.797-.836 1.058-1.449.26-.613.445-1.357.552-2.231.107-.874.161-1.832.161-2.875 0-3.005-.238-5.137-.713-6.394-.475-1.257-1.342-1.886-2.599-1.886-.705 0-1.273.153-1.702.46-.43.307-.767.805-1.012 1.495-.245.69-.406 1.61-.483 2.76a64.821 64.821 0 00-.115 4.209zm12.696-13.156v23.506c0 3.19-.79 5.581-2.369 7.176-1.58 1.595-4.224 2.392-7.935 2.392-2.699 0-4.776-.575-6.233-1.725-1.457-1.15-2.185-2.783-2.185-4.899h6.072c0 .797.322 1.426.966 1.886.307.215.636.383.989.506s.728.184 1.127.184c1.288 0 2.193-.414 2.714-1.242.521-.828.782-1.855.782-3.082v-3.266h-.092a7.56 7.56 0 01-2.369 2.208c-.935.552-1.909.828-2.921.828-2.515 0-4.408-.958-5.681-2.875-1.273-1.917-1.909-5.129-1.909-9.637 0-1.441.084-2.913.253-4.416.169-1.503.521-2.86 1.058-4.071a7.341 7.341 0 012.346-2.967c1.027-.767 2.4-1.15 4.117-1.15.89 0 1.81.245 2.76.736.95.49 1.733 1.38 2.346 2.668h.092v-2.76h6.072z" fill="#C7C7C7"/><path d="M28 51c14.36 0 26-10.094 26-22.547 0-4.477-1.505-8.65-4.1-12.157-1.837-1.926 1.502-12.28-4.25-13.09-1.683-1.065-5.948 2.873-7.805 4.373A29.416 29.416 0 0028 5.907a29.49 29.49 0 00-9.268 1.474c-2.268.751-4.6-5.587-8.96-4.175-2.168 1.407-3.073 3.817-2.98 12.201C3.774 19.089 2 23.592 2 28.453 2 40.906 13.64 51 28 51z" stroke="#000" fill="#FFF"/><path d="M9.314 13c-.478 0-.478-7.46.477-7.957C10.746 4.546 16 8.524 16 9.02 16 9.52 9.791 13 9.314 13zM45.686 13c.478 0 .478-7.46-.477-7.957C44.254 4.546 39 8.524 39 9.02 39 9.52 45.209 13 45.686 13z" fill="#000"/><path d="M12 25c3.333-5.333 7-5.333 11 0M44 25c-3.333-5.333-7-5.333-11 0M24 31.185c1.852 2.766 3.519 2.37 5-1.185M33 31.185c-1.852 2.766-3.519 2.37-5-1.185" stroke="#000"/><path d="M28.5 31c1.225 0 2.8-3.349 2.45-3.72-.35-.373-4.55-.373-4.9 0-.35.371 1.225 3.72 2.45 3.72z" fill="#000"/><path d="M15 13c0 1.143.167 2.143.5 3M41 13c0 1.143-.167 2.143-.5 3M12 15l2 4M44 15l-1 3M45 31c3.636-.667 5.636-1.333 6-2M45 32.5c2.545.667 4.545.5 6-.5M44 35.5c2.182.333 4.182.167 6-.5M12 31c-3.636-.667-5.636-1.333-6-2M12 32.5c-2.545.667-4.545.5-6-.5M11 35.5c-2.182.333-4.182.167-6-.5" stroke="#000"/></g></svg>
