<?xml version="1.0" encoding="UTF-8"?>
<svg width="233px" height="53px" viewBox="0 0 233 53" version="1.1" xmlns="http://www.w3.org/2000/svg" xmlns:xlink="http://www.w3.org/1999/xlink">
    <!-- Generator: Sketch 49.3 (51167) - http://www.bohemiancoding.com/sketch -->
    <title>Logo</title>
    <desc>Created with Sketch.</desc>
    <defs></defs>
    <g id="Logo" stroke="none" stroke-width="1" fill="none" fill-rule="evenodd">
        <text id="koci.blog" font-family="HelveticaNeue-CondensedBold, Helvetica Neue" font-size="46" font-style="condensed" font-weight="bold">
            <tspan x="61" y="42" fill="#333333">koci</tspan>
            <tspan x="138.418" y="42" fill="#B2B2B2">.blog</tspan>
        </text>
        <g id="kocisko" transform="translate(2.000000, 3.000000)">
            <path d="M26,48 C40.3594035,48 52,37.9055834 52,25.4534894 C52,20.9762451 50.4950847,16.8038052 47.8999764,13.2958056 C46.0634766,11.369749 49.4018555,1.0158707 43.6494141,0.206094767 C41.9671115,-0.859221342 37.7021484,3.07920914 35.8449742,4.57940492 C32.8083583,3.50129614 29.4842152,2.90697885 26,2.90697885 C22.7352933,2.90697885 19.6111246,3.42877008 16.7323456,4.38142797 C14.4640437,5.13206417 12.1318359,-1.20648718 7.77197266,0.206094767 C5.6042881,1.61300432 4.69873047,4.0225614 4.79242535,12.4070084 C1.77447486,16.0894557 0,20.5917722 0,25.4534894 C0,37.9055834 11.6405965,48 26,48 Z" id="Oval" stroke="#000000" fill="#FFFFFF"></path>
            <path d="M7.3137085,10 C6.83611625,10 6.83611625,2.54023738 7.79130075,2.04291987 C8.74648525,1.54560237 14,5.52414243 14,6.02145994 C14,6.51877745 7.79130075,10 7.3137085,10 Z" id="Path-2" fill="#000000"></path>
            <path d="M37.3137085,10 C36.8361162,10 36.8361162,2.54023738 37.7913007,2.04291987 C38.7464852,1.54560237 44,5.52414243 44,6.02145994 C44,6.51877745 37.7913007,10 37.3137085,10 Z" id="Path-2-Copy" fill="#000000" transform="translate(40.500000, 6.000000) scale(-1, 1) translate(-40.500000, -6.000000) "></path>
            <path d="M10,22 C13.3333333,16.6666667 17,16.6666667 21,22" id="Path-3" stroke="#000000"></path>
            <path d="M31,22 C34.3333333,16.6666667 38,16.6666667 42,22" id="Path-3-Copy" stroke="#000000" transform="translate(36.500000, 20.000000) scale(-1, 1) translate(-36.500000, -20.000000) "></path>
            <path d="M22,28.1851852 C23.8518519,30.9506173 25.5185185,30.5555556 27,27" id="Path-4" stroke="#000000"></path>
            <path d="M26,28.1851852 C27.8518519,30.9506173 29.5185185,30.5555556 31,27" id="Path-4-Copy" stroke="#000000" transform="translate(28.500000, 28.500000) scale(-1, 1) translate(-28.500000, -28.500000) "></path>
            <path d="M26.5,24 C27.7252003,24 29.3004579,27.3488372 28.9504007,27.7209302 C28.6003435,28.0930233 24.3996565,28.0930233 24.0495993,27.7209302 C23.6995421,27.3488372 25.2747997,24 26.5,24 Z" id="Triangle" fill="#000000" transform="translate(26.500000, 26.000000) scale(1, -1) translate(-26.500000, -26.000000) "></path>
            <path d="M13,10 C13,11.1428571 13.1666667,12.1428571 13.5,13" id="Path-5" stroke="#000000"></path>
            <path d="M38,10 C38,11.1428571 38.1666667,12.1428571 38.5,13" id="Path-5-Copy" stroke="#000000" transform="translate(38.500000, 11.500000) scale(-1, 1) translate(-38.500000, -11.500000) "></path>
            <path d="M10,12 L12,16" id="Path-6" stroke="#000000"></path>
            <path d="M42,12 L41,15" id="Path-7" stroke="#000000"></path>
            <path d="M43,28 C46.6363636,27.3333333 48.6363636,26.6666667 49,26" id="Path-8" stroke="#000000"></path>
            <path d="M43,29.5 C45.5454545,30.1666667 47.5454545,30 49,29" id="Path-9" stroke="#000000"></path>
            <path d="M42,32.5 C44.1818182,32.8333333 46.1818182,32.6666667 48,32" id="Path-10" stroke="#000000"></path>
            <path d="M4,28 C7.63636364,27.3333333 9.63636364,26.6666667 10,26" id="Path-8-Copy" stroke="#000000" transform="translate(7.000000, 27.000000) scale(-1, 1) translate(-7.000000, -27.000000) "></path>
            <path d="M4,29.5 C6.54545455,30.1666667 8.54545455,30 10,29" id="Path-9-Copy" stroke="#000000" transform="translate(7.000000, 29.500000) scale(-1, 1) translate(-7.000000, -29.500000) "></path>
            <path d="M3,32.5 C5.18181818,32.8333333 7.18181818,32.6666667 9,32" id="Path-10-Copy" stroke="#000000" transform="translate(6.000000, 32.500000) scale(-1, 1) translate(-6.000000, -32.500000) "></path>
        </g>
    </g>
</svg>